ffmpeg started on 2016-12-08 at 17:39:05
Report written to "Output/x264/results/ffmpeg/crowd_run_2160p50veryslow5000k.log"
Command line:
Tools/ffmpeg/ffmpeg -benchmark -y -i Input/y4m/crowd_run_2160p50.y4m -c:v libx264 -preset veryslow -b:v 5000k -an Output/x264/encoded/crowd_run_2160p50veryslow5000k.mkv
ffmpeg version N-82227-gdb23fde Copyright (c) 2000-2016 the FFmpeg developers
  built with gcc 5.4.0 (Ubuntu 5.4.0-6ubuntu1~16.04.2) 20160609
  configuration: --prefix=/home/jaroslav/ffmpeg_build --pkg-config-flags=--static --extra-cflags=-I/home/jaroslav/ffmpeg_build/include --extra-ldflags=-L/home/jaroslav/ffmpeg_build/lib --bindir=/home/jaroslav/bin --enable-gpl --enable-libass --enable-libfdk-aac --enable-libfreetype --enable-libmp3lame --enable-libopus --enable-libtheora --enable-libvorbis --enable-libvpx --enable-libx264 --enable-libx265 --enable-nvenc --enable-libmfx --enable-libxvid --enable-libgsm --enable-libopencore-amrnb --enable-version3 --enable-nonfree
  libavutil      55. 35.100 / 55. 35.100
  libavcodec     57. 66.101 / 57. 66.101
  libavformat    57. 57.100 / 57. 57.100
  libavdevice    57.  2.100 / 57.  2.100
  libavfilter     6. 66.100 /  6. 66.100
  libswscale      4.  3.100 /  4.  3.100
  libswresample   2.  4.100 /  2.  4.100
  libpostproc    54.  2.100 / 54.  2.100
Input #0, yuv4mpegpipe, from 'Input/y4m/crowd_run_2160p50.y4m':
  Duration: 00:00:10.00, start: 0.000000, bitrate: 4976642 kb/s
    Stream #0:0: Video: rawvideo (I420 / 0x30323449), yuv420p(progressive), 3840x2160, SAR 1:1 DAR 16:9, 50 fps, 50 tbr, 50 tbn, 50 tbc
[libx264 @ 0x3a991c0] using SAR=1/1
[libx264 @ 0x3a991c0] DPB size (16 frames, 518400 mbs) > level limit (5 frames, 184320 mbs)
[libx264 @ 0x3a991c0] using cpu capabilities: MMX2 SSE2Fast SSSE3 SSE4.2 AVX FMA3 AVX2 LZCNT BMI2
[libx264 @ 0x3a991c0] profile High, level 5.2
[libx264 @ 0x3a991c0] 264 - core 148 - H.264/MPEG-4 AVC codec - Copyleft 2003-2016 - http://www.videolan.org/x264.html - options: cabac=1 ref=16 deblock=1:0:0 analyse=0x3:0x133 me=umh subme=10 psy=1 psy_rd=1.00:0.00 mixed_ref=1 me_range=24 chroma_me=1 trellis=2 8x8dct=1 cqm=0 deadzone=21,11 fast_pskip=1 chroma_qp_offset=-2 threads=6 lookahead_threads=1 sliced_threads=0 nr=0 decimate=1 interlaced=0 bluray_compat=0 constrained_intra=0 bframes=8 b_pyramid=2 b_adapt=2 b_bias=0 direct=3 weightb=1 open_gop=0 weightp=2 keyint=250 keyint_min=25 scenecut=40 intra_refresh=0 rc_lookahead=60 rc=abr mbtree=1 bitrate=5000 ratetol=1.0 qcomp=0.60 qpmin=0 qpmax=69 qpstep=4 ip_ratio=1.40 aq=1:1.00
Output #0, matroska, to 'Output/x264/encoded/crowd_run_2160p50veryslow5000k.mkv':
  Metadata:
    encoder         : Lavf57.57.100
    Stream #0:0: Video: h264 (libx264) (H264 / 0x34363248), yuv420p, 3840x2160 [SAR 1:1 DAR 16:9], q=-1--1, 5000 kb/s, 50 fps, 1k tbn, 50 tbc
    Metadata:
      encoder         : Lavc57.66.101 libx264
    Side data:
      cpb: bitrate max/min/avg: 0/0/5000000 buffer size: 0 vbv_delay: -1
Stream mapping:
  Stream #0:0 -> #0:0 (rawvideo (native) -> h264 (libx264))
Press [q] to stop, [?] for help
frame=    9 fps=0.0 q=0.0 size=       0kB time=00:00:00.00 bitrate=N/A speed=   0x    frame=   19 fps= 19 q=0.0 size=       0kB time=00:00:00.00 bitrate=N/A speed=   0x    frame=   30 fps= 19 q=0.0 size=       0kB time=00:00:00.00 bitrate=N/A speed=   0x    frame=   37 fps= 18 q=0.0 size=       0kB time=00:00:00.00 bitrate=N/A speed=   0x    frame=   44 fps= 17 q=0.0 size=       0kB time=00:00:00.00 bitrate=N/A speed=   0x    frame=   51 fps= 16 q=0.0 size=       0kB time=00:00:00.00 bitrate=N/A speed=   0x    frame=   57 fps= 15 q=0.0 size=       0kB time=00:00:00.00 bitrate=N/A speed=   0x    frame=   65 fps= 15 q=0.0 size=       0kB time=00:00:00.00 bitrate=N/A speed=   0x    frame=   68 fps= 14 q=0.0 size=       0kB time=00:00:00.00 bitrate=N/A speed=   0x    frame=   72 fps=6.0 q=0.0 size=       0kB time=00:00:00.00 bitrate=N/A speed=   0x    frame=   77 fps=5.8 q=48.0 size=       1kB time=-00:00:00.01 bitrate=N/A speed=N/A    frame=   78 fps=5.6 q=44.0 size=       1kB time=00:00:00.00 bitrate=5888.0kbits/s speed=7.21e-05x    frame=   82 fps=5.3 q=52.0 size=       1kB time=00:00:00.08 bitrate=  72.7kbits/s speed=0.00527x    frame=   86 fps=5.0 q=56.0 size=       1kB time=00:00:00.16 bitrate=  36.6kbits/s speed=0.00937x    frame=   90 fps=4.7 q=55.0 size=       1kB time=00:00:00.24 bitrate=  24.4kbits/s speed=0.0127x    frame=   94 fps=4.6 q=55.0 size=       1kB time=00:00:00.32 bitrate=  18.3kbits/s speed=0.0156x    frame=   96 fps=4.4 q=55.0 size=       1kB time=00:00:00.36 bitrate=  16.3kbits/s speed=0.0167x    frame=   98 fps=4.4 q=54.0 size=       1kB time=00:00:00.40 bitrate=  14.7kbits/s speed=0.0181x    frame=   99 fps=4.2 q=54.0 size=       1kB time=00:00:00.42 bitrate=  14.0kbits/s speed=0.0179x    frame=  100 fps=4.0 q=54.0 size=       1kB time=00:00:00.44 bitrate=  13.4kbits/s speed=0.0178x    frame=  102 fps=4.0 q=54.0 size=       1kB time=00:00:00.48 bitrate=  12.2kbits/s speed=0.0187x    frame=  103 fps=3.9 q=54.0 size=       1kB time=00:00:00.50 bitrate=  11.8kbits/s speed=0.0189x    frame=  104 fps=3.8 q=54.0 size=       1kB time=00:00:00.52 bitrate=  11.3kbits/s speed=0.0191x    frame=  105 fps=3.8 q=54.0 size=       1kB time=00:00:00.54 bitrate=  10.9kbits/s speed=0.0195x    frame=  106 fps=3.7 q=54.0 size=       1kB time=00:00:00.56 bitrate=  10.5kbits/s speed=0.0194x    frame=  107 fps=3.6 q=54.0 size=       1kB time=00:00:00.58 bitrate=  10.1kbits/s speed=0.0197x    frame=  108 fps=3.5 q=54.0 size=       1kB time=00:00:00.60 bitrate=   9.8kbits/s speed=0.0195x    frame=  111 fps=3.5 q=54.0 size=       1kB time=00:00:00.66 bitrate=   8.9kbits/s speed=0.0211x    frame=  112 fps=3.4 q=54.0 size=       1kB time=00:00:00.68 bitrate=   8.6kbits/s speed=0.0206x    frame=  114 fps=3.3 q=54.0 size=       1kB time=00:00:00.72 bitrate=   8.2kbits/s speed=0.0208x    frame=  115 fps=3.2 q=54.0 size=       1kB time=00:00:00.74 bitrate=   7.9kbits/s speed=0.0208x    frame=  116 fps=3.2 q=54.0 size=       1kB time=00:00:00.76 bitrate=   7.7kbits/s speed=0.0207x    frame=  117 fps=3.1 q=54.0 size=       1kB time=00:00:00.78 bitrate=   7.5kbits/s speed=0.021x    frame=  120 fps=3.2 q=54.0 size=       1kB time=00:00:00.84 bitrate=   7.0kbits/s speed=0.0221x    frame=  121 fps=3.0 q=54.0 size=       1kB time=00:00:00.86 bitrate=   6.8kbits/s speed=0.0215x    frame=  122 fps=3.0 q=54.0 size=       1kB time=00:00:00.88 bitrate=   6.7kbits/s speed=0.0217x    frame=  124 fps=3.0 q=54.0 size=       1kB time=00:00:00.92 bitrate=   6.4kbits/s speed=0.0223x    frame=  125 fps=2.9 q=54.0 size=       1kB time=00:00:00.94 bitrate=   6.3kbits/s speed=0.0222x    frame=  126 fps=2.9 q=54.0 size=       1kB time=00:00:00.96 bitrate=   6.1kbits/s speed=0.0224x    frame=  127 fps=2.9 q=53.0 size=       1kB time=00:00:00.98 bitrate=   6.0kbits/s speed=0.0224x    frame=  128 fps=2.8 q=53.0 size=       1kB time=00:00:01.00 bitrate=   5.9kbits/s speed=0.0222x    frame=  129 fps=2.8 q=54.0 size=       1kB time=00:00:01.02 bitrate=   5.8kbits/s speed=0.0222x    frame=  130 fps=2.8 q=53.0 size=       1kB time=00:00:01.04 bitrate=   5.7kbits/s speed=0.0224x    frame=  133 fps=2.8 q=53.0 size=       1kB time=00:00:01.10 bitrate=   5.3kbits/s speed=0.0234x    frame=  134 fps=2.7 q=53.0 size=       1kB time=00:00:01.12 bitrate=   5.3kbits/s speed=0.0229x    frame=  136 fps=2.7 q=53.0 size=       1kB time=00:00:01.16 bitrate=   5.1kbits/s speed=0.023x    frame=  138 fps=2.6 q=53.0 size=       1kB time=00:00:01.20 bitrate=   4.9kbits/s speed=0.023x    frame=  142 fps=2.6 q=53.0 size=       1kB time=00:00:01.28 bitrate=   4.6kbits/s speed=0.0232x    frame=  144 fps=2.6 q=53.0 size=       1kB time=00:00:01.32 bitrate=   4.5kbits/s speed=0.0237x    frame=  146 fps=2.5 q=53.0 size=       1kB time=00:00:01.36 bitrate=   4.3kbits/s speed=0.0234x    frame=  147 fps=2.5 q=53.0 size=       1kB time=00:00:01.38 bitrate=   4.3kbits/s speed=0.0235x    frame=  148 fps=2.5 q=53.0 size=       1kB time=00:00:01.40 bitrate=   4.2kbits/s speed=0.0236x    frame=  150 fps=2.5 q=53.0 size=       1kB time=00:00:01.44 bitrate=   4.1kbits/s speed=0.0237x    frame=  151 fps=2.4 q=53.0 size=       1kB time=00:00:01.46 bitrate=   4.0kbits/s speed=0.0237x    frame=  153 fps=2.4 q=53.0 size=       1kB time=00:00:01.50 bitrate=   3.9kbits/s speed=0.0239x    frame=  154 fps=2.4 q=53.0 size=       1kB time=00:00:01.52 bitrate=   3.9kbits/s speed=0.0239x    frame=  157 fps=2.4 q=53.0 size=       1kB time=00:00:01.58 bitrate=   3.7kbits/s speed=0.0239x    frame=  158 fps=2.4 q=53.0 size=       1kB time=00:00:01.60 bitrate=   3.7kbits/s speed=0.024x    frame=  161 fps=2.3 q=53.0 size=       1kB time=00:00:01.66 bitrate=   3.5kbits/s speed=0.0242x    frame=  162 fps=2.3 q=53.0 size=       1kB time=00:00:01.68 bitrate=   3.5kbits/s speed=0.0243x    frame=  164 fps=2.3 q=53.0 size=       1kB time=00:00:01.72 bitrate=   3.4kbits/s speed=0.0245x    frame=  165 fps=2.3 q=53.0 size=       1kB time=00:00:01.74 bitrate=   3.4kbits/s speed=0.0242x    frame=  168 fps=2.3 q=53.0 size=       1kB time=00:00:01.80 bitrate=   3.3kbits/s speed=0.0248x    frame=  169 fps=2.3 q=53.0 size=       1kB time=00:00:01.82 bitrate=   3.2kbits/s speed=0.0244x    frame=  171 fps=2.3 q=52.0 size=       1kB time=00:00:01.86 bitrate=   3.2kbits/s speed=0.0248x    frame=  172 fps=2.2 q=52.0 size=       1kB time=00:00:01.88 bitrate=   3.1kbits/s speed=0.0245x    frame=  173 fps=2.2 q=52.0 size=       1kB time=00:00:01.90 bitrate=   3.1kbits/s speed=0.0244x    frame=  174 fps=2.2 q=52.0 size=       1kB time=00:00:01.92 bitrate=   3.1kbits/s speed=0.0245x    frame=  178 fps=2.2 q=52.0 size=       1kB time=00:00:02.00 bitrate=   2.9kbits/s speed=0.0251x    frame=  179 fps=2.2 q=52.0 size=       1kB time=00:00:02.02 bitrate=   2.9kbits/s speed=0.0246x    frame=  182 fps=2.2 q=52.0 size=       1kB time=00:00:02.08 bitrate=   2.8kbits/s speed=0.0251x    frame=  183 fps=2.2 q=52.0 size=       1kB time=00:00:02.10 bitrate=   2.8kbits/s speed=0.0251x    frame=  184 fps=2.2 q=52.0 size=       1kB time=00:00:02.12 bitrate=   2.8kbits/s speed=0.0251x    frame=  185 fps=2.2 q=52.0 size=       1kB time=00:00:02.14 bitrate=   2.8kbits/s speed=0.0251x    frame=  186 fps=2.2 q=52.0 size=       1kB time=00:00:02.16 bitrate=   2.7kbits/s speed=0.025x    frame=  187 fps=2.1 q=52.0 size=       1kB time=00:00:02.18 bitrate=   2.7kbits/s speed=0.0249x    frame=  188 fps=2.1 q=52.0 size=       1kB time=00:00:02.20 bitrate=   2.7kbits/s speed=0.0249x    frame=  191 fps=2.1 q=52.0 size=       1kB time=00:00:02.26 bitrate=   2.6kbits/s speed=0.0253x    frame=  192 fps=2.1 q=52.0 size=       1kB time=00:00:02.28 bitrate=   2.6kbits/s speed=0.0249x    frame=  194 fps=2.1 q=52.0 size=       1kB time=00:00:02.32 bitrate=   2.5kbits/s speed=0.0252x    frame=  197 fps=2.1 q=52.0 size=       1kB time=00:00:02.38 bitrate=   2.5kbits/s speed=0.0252x    frame=  198 fps=2.1 q=52.0 size=       1kB time=00:00:02.40 bitrate=   2.5kbits/s speed=0.0252x    frame=  199 fps=2.1 q=52.0 size=       1kB time=00:00:02.42 bitrate=   2.4kbits/s speed=0.0252x    frame=  201 fps=2.1 q=52.0 size=       1kB time=00:00:02.46 bitrate=   2.4kbits/s speed=0.0254x    frame=  202 fps=2.1 q=52.0 size=       1kB time=00:00:02.48 bitrate=   2.4kbits/s speed=0.0254x    frame=  203 fps=2.1 q=52.0 size=       1kB time=00:00:02.50 bitrate=   2.4kbits/s speed=0.0254x    frame=  205 fps=2.0 q=52.0 size=       1kB time=00:00:02.54 bitrate=   2.3kbits/s speed=0.0252x    frame=  207 fps=2.0 q=52.0 size=       1kB time=00:00:02.58 bitrate=   2.3kbits/s speed=0.0254x    frame=  210 fps=2.0 q=52.0 size=       1kB time=00:00:02.64 bitrate=   2.2kbits/s speed=0.0257x    frame=  211 fps=2.0 q=52.0 size=       1kB time=00:00:02.66 bitrate=   2.2kbits/s speed=0.0253x    frame=  212 fps=2.0 q=52.0 size=       1kB time=00:00:02.68 bitrate=   2.2kbits/s speed=0.0253x    frame=  215 fps=2.0 q=52.0 size=       1kB time=00:00:02.74 bitrate=   2.1kbits/s speed=0.0257x    frame=  216 fps=2.0 q=52.0 size=       1kB time=00:00:02.76 bitrate=   2.1kbits/s speed=0.0258x    frame=  217 fps=2.0 q=52.0 size=       1kB time=00:00:02.78 bitrate=   2.1kbits/s speed=0.0255x    frame=  219 fps=2.0 q=52.0 size=       1kB time=00:00:02.82 bitrate=   2.1kbits/s speed=0.0257x    frame=  220 fps=2.0 q=52.0 size=       1kB time=00:00:02.84 bitrate=   2.1kbits/s speed=0.0254x    frame=  221 fps=2.0 q=52.0 size=       1kB time=00:00:02.86 bitrate=   2.1kbits/s speed=0.0255x    frame=  223 fps=2.0 q=52.0 size=       1kB time=00:00:02.90 bitrate=   2.0kbits/s speed=0.0256x    frame=  224 fps=2.0 q=52.0 size=       1kB time=00:00:02.92 bitrate=   2.0kbits/s speed=0.0257x    frame=  225 fps=2.0 q=52.0 size=       1kB time=00:00:02.94 bitrate=   2.0kbits/s speed=0.0256x    frame=  226 fps=2.0 q=52.0 size=       1kB time=00:00:02.96 bitrate=   2.0kbits/s speed=0.0256x    frame=  227 fps=1.9 q=52.0 size=       1kB time=00:00:02.98 bitrate=   2.0kbits/s speed=0.0256x    frame=  229 fps=2.0 q=52.0 size=       1kB time=00:00:03.02 bitrate=   1.9kbits/s speed=0.0257x    frame=  230 fps=1.9 q=52.0 size=       1kB time=00:00:03.04 bitrate=   1.9kbits/s speed=0.0256x    frame=  231 fps=1.9 q=52.0 size=       1kB time=00:00:03.06 bitrate=   1.9kbits/s speed=0.0256x    frame=  234 fps=1.9 q=52.0 size=       1kB time=00:00:03.12 bitrate=   1.9kbits/s speed=0.0259x    frame=  235 fps=1.9 q=52.0 size=       1kB time=00:00:03.14 bitrate=   1.9kbits/s speed=0.0257x    frame=  236 fps=1.9 q=52.0 size=       1kB time=00:00:03.16 bitrate=   1.9kbits/s speed=0.0255x    frame=  239 fps=1.9 q=52.0 size=       1kB time=00:00:03.22 bitrate=   1.8kbits/s speed=0.0258x    frame=  240 fps=1.9 q=52.0 size=       1kB time=00:00:03.24 bitrate=   1.8kbits/s speed=0.0257x    frame=  241 fps=1.9 q=52.0 size=       1kB time=00:00:03.26 bitrate=   1.8kbits/s speed=0.0257x    frame=  242 fps=1.9 q=52.0 size=       1kB time=00:00:03.28 bitrate=   1.8kbits/s speed=0.0257x    frame=  245 fps=1.9 q=52.0 size=       1kB time=00:00:03.34 bitrate=   1.8kbits/s speed=0.0259x    frame=  246 fps=1.9 q=52.0 size=       1kB time=00:00:03.36 bitrate=   1.8kbits/s speed=0.0256x    frame=  249 fps=1.9 q=52.0 size=       1kB time=00:00:03.42 bitrate=   1.7kbits/s speed=0.0259x    frame=  250 fps=1.9 q=52.0 size=       1kB time=00:00:03.44 bitrate=   1.7kbits/s speed=0.0259x    frame=  251 fps=1.9 q=52.0 size=       1kB time=00:00:03.46 bitrate=   1.7kbits/s speed=0.0258x    frame=  252 fps=1.9 q=52.0 size=       1kB time=00:00:03.48 bitrate=   1.7kbits/s speed=0.0258x    frame=  253 fps=1.9 q=52.0 size=       1kB time=00:00:03.50 bitrate=   1.7kbits/s speed=0.0258x    frame=  256 fps=1.9 q=52.0 size=       1kB time=00:00:03.56 bitrate=   1.7kbits/s speed=0.026x    frame=  257 fps=1.9 q=52.0 size=       1kB time=00:00:03.58 bitrate=   1.6kbits/s speed=0.0258x    frame=  258 fps=1.9 q=52.0 size=       1kB time=00:00:03.60 bitrate=   1.6kbits/s speed=0.0258x    frame=  260 fps=1.9 q=52.0 size=       1kB time=00:00:03.64 bitrate=   1.6kbits/s speed=0.0259x    frame=  261 fps=1.8 q=52.0 size=       1kB time=00:00:03.66 bitrate=   1.6kbits/s speed=0.0259x    frame=  262 fps=1.8 q=52.0 size=       1kB time=00:00:03.68 bitrate=   1.6kbits/s speed=0.0259x    frame=  263 fps=1.8 q=52.0 size=       1kB time=00:00:03.70 bitrate=   1.6kbits/s speed=0.0259x    frame=  264 fps=1.8 q=52.0 size=       1kB time=00:00:03.72 bitrate=   1.6kbits/s speed=0.0259x    frame=  265 fps=1.8 q=52.0 size=       1kB time=00:00:03.74 bitrate=   1.6kbits/s speed=0.0258x    frame=  266 fps=1.8 q=52.0 size=       1kB time=00:00:03.76 bitrate=   1.6kbits/s speed=0.0259x    frame=  268 fps=1.8 q=52.0 size=       1kB time=00:00:03.80 bitrate=   1.5kbits/s speed=0.0259x    frame=  269 fps=1.8 q=52.0 size=       1kB time=00:00:03.82 bitrate=   1.5kbits/s speed=0.0259x    frame=  270 fps=1.8 q=51.0 size=       1kB time=00:00:03.84 bitrate=   1.5kbits/s speed=0.026x    frame=  271 fps=1.8 q=52.0 size=       1kB time=00:00:03.86 bitrate=   1.5kbits/s speed=0.026x    frame=  272 fps=1.8 q=51.0 size=       1kB time=00:00:03.88 bitrate=   1.5kbits/s speed=0.0259x    frame=  274 fps=1.8 q=51.0 size=       1kB time=00:00:03.92 bitrate=   1.5kbits/s speed=0.0259x    frame=  277 fps=1.8 q=51.0 size=       1kB time=00:00:03.98 bitrate=   1.5kbits/s speed=0.026x    frame=  278 fps=1.8 q=51.0 size=       1kB time=00:00:04.00 bitrate=   1.5kbits/s speed=0.0259x    frame=  279 fps=1.8 q=51.0 size=       1kB time=00:00:04.02 bitrate=   1.5kbits/s speed=0.0259x    frame=  282 fps=1.8 q=51.0 size=       1kB time=00:00:04.08 bitrate=   1.4kbits/s speed=0.0261x    frame=  283 fps=1.8 q=51.0 size=       1kB time=00:00:04.10 bitrate=   1.4kbits/s speed=0.026x    frame=  284 fps=1.8 q=52.0 size=       1kB time=00:00:04.12 bitrate=   1.4kbits/s speed=0.026x    frame=  285 fps=1.8 q=51.0 size=       1kB time=00:00:04.14 bitrate=   1.4kbits/s speed=0.0261x    frame=  286 fps=1.8 q=51.0 size=       1kB time=00:00:04.16 bitrate=   1.4kbits/s speed=0.0261x    frame=  287 fps=1.8 q=52.0 size=       1kB time=00:00:04.18 bitrate=   1.4kbits/s speed=0.026x    frame=  288 fps=1.8 q=52.0 size=       1kB time=00:00:04.20 bitrate=   1.4kbits/s speed=0.026x    frame=  290 fps=1.8 q=52.0 size=       1kB time=00:00:04.24 bitrate=   1.4kbits/s speed=0.0261x    frame=  291 fps=1.8 q=52.0 size=       1kB time=00:00:04.26 bitrate=   1.4kbits/s speed=0.026x    frame=  293 fps=1.8 q=51.0 size=       1kB time=00:00:04.30 bitrate=   1.4kbits/s speed=0.0261x    frame=  294 fps=1.8 q=51.0 size=       1kB time=00:00:04.32 bitrate=   1.4kbits/s speed=0.026x    frame=  295 fps=1.8 q=51.0 size=       1kB time=00:00:04.34 bitrate=   1.4kbits/s speed=0.026x    frame=  296 fps=1.8 q=51.0 size=       1kB time=00:00:04.36 bitrate=   1.4kbits/s speed=0.0261x    frame=  298 fps=1.8 q=51.0 size=       1kB time=00:00:04.40 bitrate=   1.3kbits/s speed=0.0261x    frame=  299 fps=1.8 q=51.0 size=       1kB time=00:00:04.42 bitrate=   1.3kbits/s speed=0.0261x    frame=  300 fps=1.8 q=51.0 size=       1kB time=00:00:04.44 bitrate=   1.3kbits/s speed=0.0261x    frame=  301 fps=1.8 q=52.0 size=       1kB time=00:00:04.46 bitrate=   1.3kbits/s speed=0.0261x    frame=  303 fps=1.8 q=52.0 size=       1kB time=00:00:04.50 bitrate=   1.3kbits/s speed=0.0261x    frame=  304 fps=1.7 q=52.0 size=       1kB time=00:00:04.52 bitrate=   1.3kbits/s speed=0.026x    frame=  305 fps=1.7 q=52.0 size=       1kB time=00:00:04.54 bitrate=   1.3kbits/s speed=0.026x    frame=  308 fps=1.7 q=52.0 size=       1kB time=00:00:04.60 bitrate=   1.3kbits/s speed=0.0261x    frame=  309 fps=1.7 q=52.0 size=       1kB time=00:00:04.62 bitrate=   1.3kbits/s speed=0.0262x    frame=  310 fps=1.7 q=52.0 size=       1kB time=00:00:04.64 bitrate=   1.3kbits/s speed=0.0261x    frame=  311 fps=1.7 q=52.0 size=       1kB time=00:00:04.66 bitrate=   1.3kbits/s speed=0.0261x    frame=  312 fps=1.7 q=52.0 size=       1kB time=00:00:04.68 bitrate=   1.3kbits/s speed=0.0261x    frame=  313 fps=1.7 q=52.0 size=       1kB time=00:00:04.70 bitrate=   1.3kbits/s speed=0.0261x    frame=  314 fps=1.7 q=52.0 size=       1kB time=00:00:04.72 bitrate=   1.2kbits/s speed=0.0261x    frame=  316 fps=1.7 q=52.0 size=       1kB time=00:00:04.76 bitrate=   1.2kbits/s speed=0.0261x    frame=  318 fps=1.7 q=52.0 size=       1kB time=00:00:04.80 bitrate=   1.2kbits/s speed=0.0262x    frame=  319 fps=1.7 q=52.0 size=       1kB time=00:00:04.82 bitrate=   1.2kbits/s speed=0.026x    frame=  320 fps=1.7 q=52.0 size=       1kB time=00:00:04.84 bitrate=   1.2kbits/s speed=0.026x    frame=  324 fps=1.7 q=52.0 size=       1kB time=00:00:04.92 bitrate=   1.2kbits/s speed=0.0264x    frame=  325 fps=1.7 q=52.0 size=       1kB time=00:00:04.94 bitrate=   1.2kbits/s speed=0.0262x    frame=  331 fps=1.7 q=52.0 size=    3113kB time=00:00:05.06 bitrate=5039.0kbits/s speed=0.0267x    frame=  333 fps=1.8 q=52.0 size=    3113kB time=00:00:05.10 bitrate=4999.5kbits/s speed=0.0268x    frame=  336 fps=1.8 q=52.0 size=    3113kB time=00:00:05.16 bitrate=4941.3kbits/s speed=0.027x    frame=  337 fps=1.8 q=52.0 size=    3113kB time=00:00:05.18 bitrate=4922.3kbits/s speed=0.027x    frame=  339 fps=1.8 q=52.0 size=    3113kB time=00:00:05.22 bitrate=4884.5kbits/s speed=0.0272x    frame=  340 fps=1.8 q=52.0 size=    3113kB time=00:00:05.24 bitrate=4865.9kbits/s speed=0.0272x    frame=  342 fps=1.8 q=52.0 size=    3113kB time=00:00:05.28 bitrate=4829.0kbits/s speed=0.0272x    frame=  344 fps=1.8 q=52.0 size=    3113kB time=00:00:05.32 bitrate=4792.7kbits/s speed=0.0273x    frame=  345 fps=1.8 q=52.0 size=    3113kB time=00:00:05.34 bitrate=4774.8kbits/s speed=0.0273x    frame=  346 fps=1.8 q=52.0 size=    3113kB time=00:00:05.36 bitrate=4757.0kbits/s speed=0.0273x    frame=  348 fps=1.8 q=52.0 size=    3113kB time=00:00:05.40 bitrate=4721.8kbits/s speed=0.0274x    frame=  349 fps=1.8 q=52.0 size=    3113kB time=00:00:05.42 bitrate=4704.3kbits/s speed=0.0273x    frame=  350 fps=1.8 q=52.0 size=    3113kB time=00:00:05.44 bitrate=4687.0kbits/s speed=0.0273x    frame=  352 fps=1.8 q=52.0 size=    3113kB time=00:00:05.48 bitrate=4652.8kbits/s speed=0.0274x    frame=  354 fps=1.8 q=52.0 size=    3113kB time=00:00:05.52 bitrate=4619.1kbits/s speed=0.0274x    frame=  355 fps=1.8 q=52.0 size=    3113kB time=00:00:05.54 bitrate=4602.5kbits/s speed=0.0274x    frame=  356 fps=1.8 q=52.0 size=    3113kB time=00:00:05.56 bitrate=4585.9kbits/s speed=0.0274x    frame=  357 fps=1.8 q=52.0 size=    3113kB time=00:00:05.58 bitrate=4569.5kbits/s speed=0.0274x    frame=  358 fps=1.7 q=52.0 size=    3113kB time=00:00:05.60 bitrate=4553.2kbits/s speed=0.0273x    frame=  359 fps=1.7 q=52.0 size=    3113kB time=00:00:05.62 bitrate=4537.0kbits/s speed=0.0272x    frame=  362 fps=1.7 q=52.0 size=    3113kB time=00:00:05.68 bitrate=4489.0kbits/s speed=0.0274x    frame=  363 fps=1.7 q=52.0 size=    3113kB time=00:00:05.70 bitrate=4473.3kbits/s speed=0.0274x    frame=  364 fps=1.7 q=52.0 size=    3113kB time=00:00:05.72 bitrate=4457.6kbits/s speed=0.0274x    frame=  365 fps=1.7 q=52.0 size=    3113kB time=00:00:05.74 bitrate=4442.1kbits/s speed=0.0273x    frame=  366 fps=1.7 q=52.0 size=    3113kB time=00:00:05.76 bitrate=4426.7kbits/s speed=0.0273x    frame=  368 fps=1.7 q=52.0 size=    3113kB time=00:00:05.80 bitrate=4396.2kbits/s speed=0.0274x    frame=  369 fps=1.7 q=52.0 size=    3113kB time=00:00:05.82 bitrate=4381.1kbits/s speed=0.0274x    frame=  370 fps=1.7 q=52.0 size=    3113kB time=00:00:05.84 bitrate=4366.1kbits/s speed=0.0273x    frame=  372 fps=1.7 q=52.0 size=    3113kB time=00:00:05.88 bitrate=4336.4kbits/s speed=0.0274x    frame=  373 fps=1.7 q=52.0 size=    3113kB time=00:00:05.90 bitrate=4321.7kbits/s speed=0.0273x    frame=  374 fps=1.7 q=52.0 size=    3113kB time=00:00:05.92 bitrate=4307.1kbits/s speed=0.0273x    frame=  375 fps=1.7 q=52.0 size=    3113kB time=00:00:05.94 bitrate=4292.6kbits/s speed=0.0273x    frame=  378 fps=1.7 q=52.0 size=    3113kB time=00:00:06.00 bitrate=4249.7kbits/s speed=0.0275x    frame=  379 fps=1.7 q=52.0 size=    3113kB time=00:00:06.02 bitrate=4235.5kbits/s speed=0.0273x    frame=  381 fps=1.7 q=52.0 size=    3113kB time=00:00:06.06 bitrate=4207.6kbits/s speed=0.0274x    frame=  383 fps=1.7 q=52.0 size=    3113kB time=00:00:06.10 bitrate=4180.0kbits/s speed=0.0273x    frame=  384 fps=1.7 q=52.0 size=    3113kB time=00:00:06.12 bitrate=4166.3kbits/s speed=0.0274x    frame=  385 fps=1.7 q=52.0 size=    3113kB time=00:00:06.14 bitrate=4152.8kbits/s speed=0.0273x    frame=  386 fps=1.7 q=52.0 size=    3113kB time=00:00:06.16 bitrate=4139.3kbits/s speed=0.0273x    frame=  387 fps=1.7 q=52.0 size=    3113kB time=00:00:06.18 bitrate=4125.9kbits/s speed=0.0273x    frame=  391 fps=1.7 q=52.0 size=    3113kB time=00:00:06.26 bitrate=4073.2kbits/s speed=0.0273x    frame=  393 fps=1.7 q=52.0 size=    3113kB time=00:00:06.30 bitrate=4047.3kbits/s speed=0.0273x    frame=  395 fps=1.7 q=52.0 size=    3113kB time=00:00:06.34 bitrate=4021.8kbits/s speed=0.0272x    frame=  397 fps=1.7 q=52.0 size=    3113kB time=00:00:06.38 bitrate=3996.6kbits/s speed=0.0273x    frame=  399 fps=1.7 q=52.0 size=    3113kB time=00:00:06.42 bitrate=3971.7kbits/s speed=0.0272x    frame=  401 fps=1.7 q=52.0 size=    3113kB time=00:00:06.46 bitrate=3947.1kbits/s speed=0.0273x    frame=  402 fps=1.7 q=52.0 size=    3113kB time=00:00:06.48 bitrate=3934.9kbits/s speed=0.0272x    frame=  403 fps=1.7 q=52.0 size=    3113kB time=00:00:06.50 bitrate=3922.8kbits/s speed=0.0272x    frame=  406 fps=1.7 q=52.0 size=    3113kB time=00:00:06.56 bitrate=3886.9kbits/s speed=0.0272x    frame=  408 fps=1.7 q=52.0 size=    3113kB time=00:00:06.60 bitrate=3863.4kbits/s speed=0.0272x    frame=  409 fps=1.7 q=52.0 size=    3113kB time=00:00:06.62 bitrate=3851.7kbits/s speed=0.0272x    frame=  412 fps=1.7 q=52.0 size=    3113kB time=00:00:06.68 bitrate=3817.1kbits/s speed=0.0272x    frame=  413 fps=1.7 q=52.0 size=    3113kB time=00:00:06.70 bitrate=3805.7kbits/s speed=0.0272x    frame=  415 fps=1.7 q=52.0 size=    3113kB time=00:00:06.74 bitrate=3783.1kbits/s speed=0.0272x    frame=  416 fps=1.7 q=52.0 size=    3113kB time=00:00:06.76 bitrate=3772.0kbits/s speed=0.0272x    frame=  418 fps=1.7 q=52.0 size=    3113kB time=00:00:06.80 bitrate=3749.8kbits/s speed=0.0272x    frame=  419 fps=1.7 q=52.0 size=    3113kB time=00:00:06.82 bitrate=3738.8kbits/s speed=0.0272x    frame=  421 fps=1.7 q=52.0 size=    3113kB time=00:00:06.86 bitrate=3717.0kbits/s speed=0.0272x    frame=  422 fps=1.7 q=52.0 size=    3113kB time=00:00:06.88 bitrate=3706.2kbits/s speed=0.0272x    frame=  425 fps=1.7 q=52.0 size=    3113kB time=00:00:06.94 bitrate=3674.1kbits/s speed=0.0271x    frame=  427 fps=1.7 q=52.0 size=    3113kB time=00:00:06.98 bitrate=3653.1kbits/s speed=0.0272x    frame=  428 fps=1.7 q=52.0 size=    3113kB time=00:00:07.00 bitrate=3642.7kbits/s speed=0.0271x    frame=  429 fps=1.7 q=52.0 size=    3113kB time=00:00:07.02 bitrate=3632.3kbits/s speed=0.0271x    frame=  431 fps=1.7 q=52.0 size=    3113kB time=00:00:07.06 bitrate=3611.7kbits/s speed=0.0271x    frame=  434 fps=1.7 q=52.0 size=    3113kB time=00:00:07.12 bitrate=3581.3kbits/s speed=0.0271x    frame=  436 fps=1.7 q=52.0 size=    3113kB time=00:00:07.16 bitrate=3561.3kbits/s speed=0.0272x    frame=  437 fps=1.7 q=52.0 size=    3113kB time=00:00:07.18 bitrate=3551.3kbits/s speed=0.0272x    frame=  438 fps=1.7 q=52.0 size=    3113kB time=00:00:07.20 bitrate=3541.5kbits/s speed=0.0271x    frame=  439 fps=1.7 q=52.0 size=    3113kB time=00:00:07.22 bitrate=3531.7kbits/s speed=0.0272x    frame=  440 fps=1.6 q=52.0 size=    3113kB time=00:00:07.24 bitrate=3521.9kbits/s speed=0.0271x    frame=  442 fps=1.6 q=52.0 size=    3113kB time=00:00:07.28 bitrate=3502.6kbits/s speed=0.0271x    frame=  443 fps=1.6 q=52.0 size=    3113kB time=00:00:07.30 bitrate=3493.0kbits/s speed=0.0271x    frame=  445 fps=1.6 q=52.0 size=    3113kB time=00:00:07.34 bitrate=3473.9kbits/s speed=0.0272x    frame=  446 fps=1.6 q=52.0 size=    3113kB time=00:00:07.36 bitrate=3464.5kbits/s speed=0.0271x    frame=  448 fps=1.6 q=52.0 size=    3113kB time=00:00:07.40 bitrate=3445.8kbits/s speed=0.0271x    frame=  449 fps=1.6 q=52.0 size=    3113kB time=00:00:07.42 bitrate=3436.5kbits/s speed=0.0271x    frame=  450 fps=1.6 q=52.0 size=    3113kB time=00:00:07.44 bitrate=3427.3kbits/s speed=0.0271x    frame=  452 fps=1.6 q=52.0 size=    3113kB time=00:00:07.48 bitrate=3408.9kbits/s speed=0.0271x    frame=  453 fps=1.6 q=52.0 size=    3113kB time=00:00:07.50 bitrate=3399.8kbits/s speed=0.0271x    frame=  454 fps=1.6 q=52.0 size=    3113kB time=00:00:07.52 bitrate=3390.8kbits/s speed=0.027x    frame=  457 fps=1.6 q=52.0 size=    3113kB time=00:00:07.58 bitrate=3364.0kbits/s speed=0.0272x    frame=  458 fps=1.6 q=52.0 size=    3113kB time=00:00:07.60 bitrate=3355.1kbits/s speed=0.0272x    frame=  459 fps=1.6 q=52.0 size=    3113kB time=00:00:07.62 bitrate=3346.3kbits/s speed=0.0272x    frame=  460 fps=1.6 q=52.0 size=    3113kB time=00:00:07.64 bitrate=3337.5kbits/s speed=0.027x    frame=  462 fps=1.6 q=52.0 size=    3113kB time=00:00:07.68 bitrate=3320.2kbits/s speed=0.0271x    frame=  463 fps=1.6 q=52.0 size=    3113kB time=00:00:07.70 bitrate=3311.5kbits/s speed=0.0271x    frame=  466 fps=1.6 q=52.0 size=    3113kB time=00:00:07.76 bitrate=3285.9kbits/s speed=0.0271x    frame=  468 fps=1.6 q=52.0 size=    3113kB time=00:00:07.80 bitrate=3269.1kbits/s speed=0.027x    frame=  469 fps=1.6 q=52.0 size=    3113kB time=00:00:07.82 bitrate=3260.7kbits/s speed=0.027x    frame=  470 fps=1.6 q=52.0 size=    3113kB time=00:00:07.84 bitrate=3252.4kbits/s speed=0.027x    frame=  472 fps=1.6 q=52.0 size=    3113kB time=00:00:07.88 bitrate=3235.9kbits/s speed=0.0271x    frame=  473 fps=1.6 q=52.0 size=    3113kB time=00:00:07.90 bitrate=3227.7kbits/s speed=0.0271x    frame=  474 fps=1.6 q=52.0 size=    3113kB time=00:00:07.92 bitrate=3219.6kbits/s speed=0.027x    frame=  475 fps=1.6 q=52.0 size=    3113kB time=00:00:07.94 bitrate=3211.5kbits/s speed=0.027x    frame=  476 fps=1.6 q=52.0 size=    3113kB time=00:00:07.96 bitrate=3203.4kbits/s speed=0.027x    frame=  478 fps=1.6 q=52.0 size=    3113kB time=00:00:08.00 bitrate=3187.4kbits/s speed=0.0271x    frame=  479 fps=1.6 q=52.0 size=    3113kB time=00:00:08.02 bitrate=3179.4kbits/s speed=0.027x    frame=  480 fps=1.6 q=52.0 size=    3113kB time=00:00:08.04 bitrate=3171.5kbits/s speed=0.027x    frame=  481 fps=1.6 q=52.0 size=    3113kB time=00:00:08.06 bitrate=3163.7kbits/s speed=0.027x    frame=  482 fps=1.6 q=52.0 size=    3113kB time=00:00:08.08 bitrate=3155.8kbits/s speed=0.027x    frame=  483 fps=1.6 q=52.0 size=    3113kB time=00:00:08.10 bitrate=3148.0kbits/s speed=0.027x    frame=  484 fps=1.6 q=52.0 size=    3113kB time=00:00:08.12 bitrate=3140.3kbits/s speed=0.027x    frame=  486 fps=1.6 q=52.0 size=    3113kB time=00:00:08.16 bitrate=3124.9kbits/s speed=0.027x    frame=  487 fps=1.6 q=52.0 size=    3113kB time=00:00:08.18 bitrate=3117.2kbits/s speed=0.027x    frame=  488 fps=1.6 q=52.0 size=    3113kB time=00:00:08.20 bitrate=3109.6kbits/s speed=0.027x    frame=  490 fps=1.6 q=52.0 size=    3113kB time=00:00:08.24 bitrate=3094.6kbits/s speed=0.0271x    frame=  491 fps=1.6 q=52.0 size=    3113kB time=00:00:08.26 bitrate=3087.1kbits/s speed=0.0269x    frame=  493 fps=1.6 q=52.0 size=    3113kB time=00:00:08.30 bitrate=3072.2kbits/s speed=0.027x    frame=  494 fps=1.6 q=52.0 size=    3113kB time=00:00:08.32 bitrate=3064.8kbits/s speed=0.027x    frame=  495 fps=1.6 q=52.0 size=    3113kB time=00:00:08.34 bitrate=3057.5kbits/s speed=0.027x    frame=  496 fps=1.6 q=52.0 size=    3113kB time=00:00:08.36 bitrate=3050.1kbits/s speed=0.027x    frame=  497 fps=1.6 q=52.0 size=    3113kB time=00:00:08.38 bitrate=3042.9kbits/s speed=0.027x    frame=  498 fps=1.6 q=52.0 size=    3113kB time=00:00:08.40 bitrate=3035.6kbits/s speed=0.027x    frame=  499 fps=1.6 q=52.0 size=    3113kB time=00:00:08.42 bitrate=3028.4kbits/s speed=0.0269x    frame=  500 fps=1.6 q=52.0 size=    3113kB time=00:00:08.44 bitrate=3021.2kbits/s speed=0.0269x    frame=  500 fps=1.4 q=-1.0 Lsize=    6213kB time=00:00:09.94 bitrate=5120.0kbits/s speed=0.027x    
video:6209kB audio:0kB subtitle:0kB other streams:0kB global headers:0kB muxing overhead: 0.069883%
bench: utime=1413.144s
bench: maxrss=3270056kB
[libx264 @ 0x3a991c0] frame I:2     Avg QP:42.30  size:174974
[libx264 @ 0x3a991c0] frame P:114   Avg QP:49.99  size: 25064
[libx264 @ 0x3a991c0] frame B:384   Avg QP:50.53  size:  8203
[libx264 @ 0x3a991c0] consecutive B-frames:  0.4%  0.0%  1.2% 60.0% 30.0%  8.4%  0.0%  0.0%  0.0%
[libx264 @ 0x3a991c0] mb I  I16..4: 27.3% 68.6%  4.1%
[libx264 @ 0x3a991c0] mb P  I16..4:  3.9%  4.8%  0.0%  P16..4: 26.7%  0.7%  2.1%  0.0%  0.0%    skip:61.7%
[libx264 @ 0x3a991c0] mb B  I16..4:  0.0%  0.0%  0.0%  B16..8: 24.4%  0.3%  0.0%  direct: 0.1%  skip:75.1%  L0:40.4% L1:59.5% BI: 0.1%
[libx264 @ 0x3a991c0] final ratefactor: 43.86
[libx264 @ 0x3a991c0] 8x8 transform intra:57.3% inter:95.8%
[libx264 @ 0x3a991c0] direct mvs  spatial:99.2% temporal:0.8%
[libx264 @ 0x3a991c0] coded y,uvDC,uvAC intra: 10.9% 31.9% 4.3% inter: 0.3% 2.8% 0.0%
[libx264 @ 0x3a991c0] i16 v,h,dc,p: 47% 24%  4% 25%
[libx264 @ 0x3a991c0] i8 v,h,dc,ddl,ddr,vr,hd,vl,hu:  8%  4% 51%  7%  8%  7%  7%  5%  5%
[libx264 @ 0x3a991c0] i4 v,h,dc,ddl,ddr,vr,hd,vl,hu:  7%  4%  2% 14% 17% 15% 16% 12% 15%
[libx264 @ 0x3a991c0] i8c dc,h,v,p: 74% 12% 10%  4%
[libx264 @ 0x3a991c0] Weighted P-Frames: Y:1.8% UV:0.9%
[libx264 @ 0x3a991c0] ref P L0: 52.7%  0.8% 16.0%  5.4%  4.7%  4.1%  4.0%  1.7%  1.7%  1.5%  1.4%  1.3%  1.3%  1.2%  1.4%  0.8%
[libx264 @ 0x3a991c0] ref B L0: 91.2%  3.6%  1.6%  0.6%  0.5%  0.5%  0.4%  0.2%  0.2%  0.2%  0.2%  0.2%  0.2%  0.2%  0.1%
[libx264 @ 0x3a991c0] ref B L1: 98.8%  1.2%
[libx264 @ 0x3a991c0] kb/s:5085.65
